ffmpeg started on 2025-05-28 at 10:40:55
Report written to "D:\Convert\FFMetrics\reports\psnr_report-6.txt"
Log level: 32
Command line:
ffmpeg -hide_banner -nostdin -i "G:\\\xc0\xed\xe8\xec\xe5\\\xce\xed\xe3\xee\xe8\xed\xe3\xe8\\!_36_\xce\xf1\xe5\xed\xfc_2024\\JamClub\\MF \xcf\xf0\xe8\xe7\xf0\xe0\xea\\\xd2\xc2-1\\[JAMCLUB] MF Ghost - 11 (1080p)_HEVC.mkv" -i "G:\\\xc0\xed\xe8\xec\xe5\\\xce\xed\xe3\xee\xe8\xed\xe3\xe8\\!_36_\xce\xf1\xe5\xed\xfc_2024\\JamClub\\MF \xcf\xf0\xe8\xe7\xf0\xe0\xea\\\xd2\xc2-1\\[JAMCLUB] MF Ghost - 11 (1080p).mp4" -lavfi "[0:v]settb=AVTB,setpts=PTS-STARTPTS,format=pix_fmts=yuv420p10,fps=24000/1001,scale=1920:1080:flags=bicubic[main];[1:v]settb=AVTB,setpts=PTS-STARTPTS,format=pix_fmts=yuv420p,fps=24000/1001,scale=1920:1080:flags=bicubic[ref];[main][ref]psnr=eof_action=endall:stats_file='D\\:/Convert/FFMetrics/logs/psnr_logfile-6.txt'" -f null -
Input #0, matroska,webm, from 'G:\Аниме\Онгоинги\!_36_Осень_2024\JamClub\MF Призрак\ТВ-1\[JAMCLUB] MF Ghost - 11 (1080p)_HEVC.mkv':
  Metadata:
    COMPATIBLE_BRANDS: isomiso2avc1mp41
    MAJOR_BRAND     : isom
    MINOR_VERSION   : 512
    ENCODER         : Lavf61.7.100
  Duration: 00:24:02.35, start: -0.021000, bitrate: 1960 kb/s
  Stream #0:0: Video: hevc (Main 10), yuv420p10le(tv, bt709, progressive), 1920x1080 [SAR 1:1 DAR 16:9], 23.98 fps, 23.98 tbr, 1k tbn (default)
      Metadata:
        HANDLER_NAME    : VideoHandler
        VENDOR_ID       : [0][0][0][0]
        ENCODER         : Lavc61.19.100 libx265
        BPS             : 1760945
        DURATION        : 00:24:02.232708333
        NUMBER_OF_FRAMES: 34579
        NUMBER_OF_BYTES : 317461490
        _STATISTICS_WRITING_APP: mkvpropedit v66.0.0 ('Josie') 64-bit
        _STATISTICS_WRITING_DATE_UTC: 2025-05-27 10:31:29
        _STATISTICS_TAGS: BPS DURATION NUMBER_OF_FRAMES NUMBER_OF_BYTES
  Stream #0:1: Audio: aac (LC), 48000 Hz, stereo, fltp (default)
      Metadata:
        HANDLER_NAME    : SoundHandler
        VENDOR_ID       : [0][0][0][0]
        ENCODER         : Lavc61.19.100 aac
        BPS             : 195117
        DURATION        : 00:24:02.325000000
        NUMBER_OF_FRAMES: 67610
        NUMBER_OF_BYTES : 35177887
        _STATISTICS_WRITING_APP: mkvpropedit v66.0.0 ('Josie') 64-bit
        _STATISTICS_WRITING_DATE_UTC: 2025-05-27 10:31:29
        _STATISTICS_TAGS: BPS DURATION NUMBER_OF_FRAMES NUMBER_OF_BYTES
Input #1, mov,mp4,m4a,3gp,3g2,mj2, from 'G:\Аниме\Онгоинги\!_36_Осень_2024\JamClub\MF Призрак\ТВ-1\[JAMCLUB] MF Ghost - 11 (1080p).mp4':
  Metadata:
    major_brand     : isom
    minor_version   : 512
    compatible_brands: isomiso2avc1mp41
    encoder         : Lavf60.10.100
  Duration: 00:24:02.33, start: 0.000000, bitrate: 5253 kb/s
  Stream #1:0[0x1](und): Video: h264 (High) (avc1 / 0x31637661), yuv420p(tv, bt709, progressive), 1920x1080 [SAR 1:1 DAR 16:9], 4992 kb/s, 23.98 fps, 23.98 tbr, 24k tbn (default)
      Metadata:
        handler_name    : VideoHandler
        vendor_id       : [0][0][0][0]
        encoder         : Lavc60.23.100 h264_nvenc
  Stream #1:1[0x2](und): Audio: aac (LC) (mp4a / 0x6134706D), 48000 Hz, stereo, fltp, 255 kb/s (default)
      Metadata:
        handler_name    : SoundHandler
        vendor_id       : [0][0][0][0]
Stream mapping:
  Stream #0:0 (hevc) -> settb:default
  Stream #1:0 (h264) -> settb:default
  psnr:default -> Stream #0:0 (wrapped_avframe)
  Stream #0:1 -> #0:1 (aac (native) -> pcm_s16le (native))
Output #0, null, to 'pipe:':
  Metadata:
    COMPATIBLE_BRANDS: isomiso2avc1mp41
    MAJOR_BRAND     : isom
    MINOR_VERSION   : 512
    encoder         : Lavf61.7.100
  Stream #0:0: Video: wrapped_avframe, yuv420p10le(tv, bt709, progressive), 1920x1080 [SAR 1:1 DAR 16:9], q=2-31, 200 kb/s, 23.98 fps, 23.98 tbn
      Metadata:
        encoder         : Lavc61.19.100 wrapped_avframe
  Stream #0:1: Audio: pcm_s16le, 48000 Hz, stereo, s16, 1536 kb/s (default)
      Metadata:
        HANDLER_NAME    : SoundHandler
        VENDOR_ID       : [0][0][0][0]
        _STATISTICS_TAGS: BPS DURATION NUMBER_OF_FRAMES NUMBER_OF_BYTES
        BPS             : 195117
        DURATION        : 00:24:02.325000000
        NUMBER_OF_FRAMES: 67610
        NUMBER_OF_BYTES : 35177887
        _STATISTICS_WRITING_APP: mkvpropedit v66.0.0 ('Josie') 64-bit
        _STATISTICS_WRITING_DATE_UTC: 2025-05-27 10:31:29
        encoder         : Lavc61.19.100 pcm_s16le
frame=  117 fps=0.0 q=-0.0 size=N/A time=00:00:04.87 bitrate=N/A speed=9.47x    frame=  284 fps=277 q=-0.0 size=N/A time=00:00:11.84 bitrate=N/A speed=11.6x    frame=  482 fps=314 q=-0.0 size=N/A time=00:00:20.10 bitrate=N/A speed=13.1x    frame=  740 fps=359 q=-0.0 size=N/A time=00:00:30.86 bitrate=N/A speed=  15x    frame=  920 fps=358 q=-0.0 size=N/A time=00:00:38.37 bitrate=N/A speed=14.9x    frame= 1105 fps=358 q=-0.0 size=N/A time=00:00:46.08 bitrate=N/A speed=14.9x    frame= 1202 fps=333 q=-0.0 size=N/A time=00:00:50.13 bitrate=N/A speed=13.9x    frame= 1372 fps=333 q=-0.0 size=N/A time=00:00:57.22 bitrate=N/A speed=13.9x    frame= 1550 fps=334 q=-0.0 size=N/A time=00:01:04.64 bitrate=N/A speed=13.9x    frame= 1737 fps=338 q=-0.0 size=N/A time=00:01:12.44 bitrate=N/A speed=14.1x    frame= 1891 fps=334 q=-0.0 size=N/A time=00:01:18.87 bitrate=N/A speed=13.9x    frame= 2041 fps=331 q=-0.0 size=N/A time=00:01:25.12 bitrate=N/A speed=13.8x    frame= 2228 fps=333 q=-0.0 size=N/A time=00:01:32.92 bitrate=N/A speed=13.9x    frame= 2377 fps=329 q=-0.0 size=N/A time=00:01:39.14 bitrate=N/A speed=13.7x    frame= 2545 fps=329 q=-0.0 size=N/A time=00:01:46.14 bitrate=N/A speed=13.7x    frame= 2672 fps=324 q=-0.0 size=N/A time=00:01:51.44 bitrate=N/A speed=13.5x    frame= 2813 fps=321 q=-0.0 size=N/A time=00:01:57.32 bitrate=N/A speed=13.4x    frame= 2958 fps=319 q=-0.0 size=N/A time=00:02:03.37 bitrate=N/A speed=13.3x    frame= 3112 fps=318 q=-0.0 size=N/A time=00:02:09.79 bitrate=N/A speed=13.3x    frame= 3271 fps=317 q=-0.0 size=N/A time=00:02:16.42 bitrate=N/A speed=13.2x    frame= 3487 fps=322 q=-0.0 size=N/A time=00:02:25.43 bitrate=N/A speed=13.4x    frame= 3757 fps=331 q=-0.0 size=N/A time=00:02:36.69 bitrate=N/A speed=13.8x    frame= 4020 fps=339 q=-0.0 size=N/A time=00:02:47.66 bitrate=N/A speed=14.1x    frame= 4273 fps=345 q=-0.0 size=N/A time=00:02:58.21 bitrate=N/A speed=14.4x    frame= 4516 fps=350 q=-0.0 size=N/A time=00:03:08.35 bitrate=N/A speed=14.6x    frame= 4745 fps=354 q=-0.0 size=N/A time=00:03:17.90 bitrate=N/A speed=14.8x    frame= 4968 fps=357 q=-0.0 size=N/A time=00:03:27.20 bitrate=N/A speed=14.9x    frame= 5178 fps=359 q=-0.0 size=N/A time=00:03:35.96 bitrate=N/A speed=  15x    frame= 5415 fps=362 q=-0.0 size=N/A time=00:03:45.85 bitrate=N/A speed=15.1x    frame= 5686 fps=368 q=-0.0 size=N/A time=00:03:57.15 bitrate=N/A speed=15.3x    frame= 5950 fps=372 q=-0.0 size=N/A time=00:04:08.16 bitrate=N/A speed=15.5x    frame= 6180 fps=375 q=-0.0 size=N/A time=00:04:17.75 bitrate=N/A speed=15.6x    frame= 6415 fps=377 q=-0.0 size=N/A time=00:04:27.55 bitrate=N/A speed=15.7x    frame= 6630 fps=378 q=-0.0 size=N/A time=00:04:36.52 bitrate=N/A speed=15.8x    frame= 6835 fps=379 q=-0.0 size=N/A time=00:04:45.07 bitrate=N/A speed=15.8x    frame= 7022 fps=378 q=-0.0 size=N/A time=00:04:52.87 bitrate=N/A speed=15.8x    frame= 7221 fps=379 q=-0.0 size=N/A time=00:05:01.17 bitrate=N/A speed=15.8x    frame= 7412 fps=378 q=-0.0 size=N/A time=00:05:09.14 bitrate=N/A speed=15.8x    frame= 7603 fps=378 q=-0.0 size=N/A time=00:05:17.10 bitrate=N/A speed=15.8x    frame= 7835 fps=380 q=-0.0 size=N/A time=00:05:26.78 bitrate=N/A speed=15.8x    frame= 8024 fps=380 q=-0.0 size=N/A time=00:05:34.66 bitrate=N/A speed=15.8x    frame= 8242 fps=381 q=-0.0 size=N/A time=00:05:43.76 bitrate=N/A speed=15.9x    frame= 8440 fps=381 q=-0.0 size=N/A time=00:05:52.01 bitrate=N/A speed=15.9x    frame= 8621 fps=380 q=-0.0 size=N/A time=00:05:59.56 bitrate=N/A speed=15.8x    frame= 8787 fps=379 q=-0.0 size=N/A time=00:06:06.49 bitrate=N/A speed=15.8x    frame= 9018 fps=380 q=-0.0 size=N/A time=00:06:16.12 bitrate=N/A speed=15.9x    frame= 9220 fps=381 q=-0.0 size=N/A time=00:06:24.55 bitrate=N/A speed=15.9x    frame= 9462 fps=382 q=-0.0 size=N/A time=00:06:34.64 bitrate=N/A speed=15.9x    frame= 9664 fps=383 q=-0.0 size=N/A time=00:06:43.06 bitrate=N/A speed=  16x    frame= 9846 fps=382 q=-0.0 size=N/A time=00:06:50.66 bitrate=N/A speed=15.9x    frame=10072 fps=383 q=-0.0 size=N/A time=00:07:00.08 bitrate=N/A speed=  16x    frame=10251 fps=382 q=-0.0 size=N/A time=00:07:07.55 bitrate=N/A speed=  16x    frame=10442 fps=382 q=-0.0 size=N/A time=00:07:15.56 bitrate=N/A speed=15.9x    frame=10661 fps=383 q=-0.0 size=N/A time=00:07:24.65 bitrate=N/A speed=  16x    frame=10905 fps=385 q=-0.0 size=N/A time=00:07:34.82 bitrate=N/A speed=  16x    frame=11180 fps=387 q=-0.0 size=N/A time=00:07:46.29 bitrate=N/A speed=16.1x    frame=11437 fps=389 q=-0.0 size=N/A time=00:07:57.01 bitrate=N/A speed=16.2x    frame=11674 fps=390 q=-0.0 size=N/A time=00:08:06.90 bitrate=N/A speed=16.3x    frame=11884 fps=391 q=-0.0 size=N/A time=00:08:15.66 bitrate=N/A speed=16.3x    frame=12148 fps=393 q=-0.0 size=N/A time=00:08:26.67 bitrate=N/A speed=16.4x    frame=12413 fps=395 q=-0.0 size=N/A time=00:08:37.72 bitrate=N/A speed=16.5x    frame=12671 fps=396 q=-0.0 size=N/A time=00:08:48.52 bitrate=N/A speed=16.5x    frame=12926 fps=398 q=-0.0 size=N/A time=00:08:59.12 bitrate=N/A speed=16.6x    frame=13160 fps=399 q=-0.0 size=N/A time=00:09:08.88 bitrate=N/A speed=16.6x    frame=13345 fps=398 q=-0.0 size=N/A time=00:09:16.59 bitrate=N/A speed=16.6x    frame=13567 fps=399 q=-0.0 size=N/A time=00:09:25.85 bitrate=N/A speed=16.6x    frame=13760 fps=398 q=-0.0 size=N/A time=00:09:33.90 bitrate=N/A speed=16.6x    frame=13974 fps=399 q=-0.0 size=N/A time=00:09:42.83 bitrate=N/A speed=16.6x    frame=14207 fps=399 q=-0.0 size=N/A time=00:09:52.55 bitrate=N/A speed=16.7x    frame=14369 fps=398 q=-0.0 size=N/A time=00:09:59.30 bitrate=N/A speed=16.6x    frame=14634 fps=400 q=-0.0 size=N/A time=00:10:10.35 bitrate=N/A speed=16.7x    frame=14856 fps=400 q=-0.0 size=N/A time=00:10:19.61 bitrate=N/A speed=16.7x    frame=15051 fps=400 q=-0.0 size=N/A time=00:10:27.75 bitrate=N/A speed=16.7x    frame=15289 fps=401 q=-0.0 size=N/A time=00:10:37.67 bitrate=N/A speed=16.7x    frame=15510 fps=401 q=-0.0 size=N/A time=00:10:46.89 bitrate=N/A speed=16.7x    frame=15674 fps=400 q=-0.0 size=N/A time=00:10:53.73 bitrate=N/A speed=16.7x    frame=15864 fps=400 q=-0.0 size=N/A time=00:11:01.66 bitrate=N/A speed=16.7x    frame=16022 fps=398 q=-0.0 size=N/A time=00:11:08.25 bitrate=N/A speed=16.6x    frame=16242 fps=399 q=-0.0 size=N/A time=00:11:17.42 bitrate=N/A speed=16.6x    frame=16483 fps=400 q=-0.0 size=N/A time=00:11:27.47 bitrate=N/A speed=16.7x    frame=16742 fps=401 q=-0.0 size=N/A time=00:11:38.28 bitrate=N/A speed=16.7x    frame=17002 fps=402 q=-0.0 size=N/A time=00:11:49.12 bitrate=N/A speed=16.8x    frame=17256 fps=403 q=-0.0 size=N/A time=00:11:59.71 bitrate=N/A speed=16.8x    frame=17511 fps=404 q=-0.0 size=N/A time=00:12:10.35 bitrate=N/A speed=16.9x    frame=17741 fps=405 q=-0.0 size=N/A time=00:12:19.94 bitrate=N/A speed=16.9x    frame=17932 fps=404 q=-0.0 size=N/A time=00:12:27.91 bitrate=N/A speed=16.9x    frame=18113 fps=404 q=-0.0 size=N/A time=00:12:35.46 bitrate=N/A speed=16.8x    frame=18283 fps=403 q=-0.0 size=N/A time=00:12:42.55 bitrate=N/A speed=16.8x    frame=18503 fps=403 q=-0.0 size=N/A time=00:12:51.72 bitrate=N/A speed=16.8x    frame=18680 fps=402 q=-0.0 size=N/A time=00:12:59.11 bitrate=N/A speed=16.8x    frame=18849 fps=402 q=-0.0 size=N/A time=00:13:06.16 bitrate=N/A speed=16.8x    frame=19024 fps=401 q=-0.0 size=N/A time=00:13:13.45 bitrate=N/A speed=16.7x    frame=19171 fps=400 q=-0.0 size=N/A time=00:13:19.59 bitrate=N/A speed=16.7x    frame=19387 fps=400 q=-0.0 size=N/A time=00:13:28.59 bitrate=N/A speed=16.7x    frame=19621 fps=400 q=-0.0 size=N/A time=00:13:38.35 bitrate=N/A speed=16.7x    frame=19831 fps=400 q=-0.0 size=N/A time=00:13:47.11 bitrate=N/A speed=16.7x    frame=20042 fps=401 q=-0.0 size=N/A time=00:13:55.91 bitrate=N/A speed=16.7x    frame=20222 fps=400 q=-0.0 size=N/A time=00:14:03.42 bitrate=N/A speed=16.7x    frame=20456 fps=401 q=-0.0 size=N/A time=00:14:13.18 bitrate=N/A speed=16.7x    frame=20693 fps=401 q=-0.0 size=N/A time=00:14:23.07 bitrate=N/A speed=16.7x    frame=20893 fps=401 q=-0.0 size=N/A time=00:14:31.41 bitrate=N/A speed=16.7x    frame=21092 fps=401 q=-0.0 size=N/A time=00:14:39.71 bitrate=N/A speed=16.7x    frame=21337 fps=402 q=-0.0 size=N/A time=00:14:49.93 bitrate=N/A speed=16.8x    frame=21560 fps=402 q=-0.0 size=N/A time=00:14:59.23 bitrate=N/A speed=16.8x    frame=21772 fps=402 q=-0.0 size=N/A time=00:15:08.07 bitrate=N/A speed=16.8x    frame=22004 fps=402 q=-0.0 size=N/A time=00:15:17.75 bitrate=N/A speed=16.8x    frame=22249 fps=403 q=-0.0 size=N/A time=00:15:27.96 bitrate=N/A speed=16.8x    frame=22510 fps=404 q=-0.0 size=N/A time=00:15:38.85 bitrate=N/A speed=16.9x    frame=22770 fps=405 q=-0.0 size=N/A time=00:15:49.69 bitrate=N/A speed=16.9x    frame=23021 fps=406 q=-0.0 size=N/A time=00:16:00.16 bitrate=N/A speed=16.9x    frame=23252 fps=406 q=-0.0 size=N/A time=00:16:09.80 bitrate=N/A speed=16.9x    frame=23483 fps=407 q=-0.0 size=N/A time=00:16:19.43 bitrate=N/A speed=  17x    frame=23730 fps=407 q=-0.0 size=N/A time=00:16:29.78 bitrate=N/A speed=  17x    frame=23989 fps=408 q=-0.0 size=N/A time=00:16:40.54 bitrate=N/A speed=  17x    frame=24256 fps=409 q=-0.0 size=N/A time=00:16:51.67 bitrate=N/A speed=17.1x    frame=24528 fps=410 q=-0.0 size=N/A time=00:17:03.02 bitrate=N/A speed=17.1x    frame=24755 fps=410 q=-0.0 size=N/A time=00:17:12.48 bitrate=N/A speed=17.1x    frame=24978 fps=410 q=-0.0 size=N/A time=00:17:21.79 bitrate=N/A speed=17.1x    frame=25239 fps=411 q=-0.0 size=N/A time=00:17:32.67 bitrate=N/A speed=17.1x    frame=25477 fps=412 q=-0.0 size=N/A time=00:17:42.60 bitrate=N/A speed=17.2x    frame=25691 fps=412 q=-0.0 size=N/A time=00:17:51.52 bitrate=N/A speed=17.2x    frame=25944 fps=412 q=-0.0 size=N/A time=00:18:02.08 bitrate=N/A speed=17.2x    frame=26195 fps=413 q=-0.0 size=N/A time=00:18:12.54 bitrate=N/A speed=17.2x    frame=26446 fps=413 q=-0.0 size=N/A time=00:18:23.01 bitrate=N/A speed=17.2x    frame=26626 fps=413 q=-0.0 size=N/A time=00:18:30.52 bitrate=N/A speed=17.2x    frame=26842 fps=413 q=-0.0 size=N/A time=00:18:39.53 bitrate=N/A speed=17.2x    frame=27071 fps=413 q=-0.0 size=N/A time=00:18:49.08 bitrate=N/A speed=17.2x    frame=27331 fps=414 q=-0.0 size=N/A time=00:18:59.93 bitrate=N/A speed=17.3x    frame=27581 fps=414 q=-0.0 size=N/A time=00:19:10.35 bitrate=N/A speed=17.3x    frame=27822 fps=415 q=-0.0 size=N/A time=00:19:20.40 bitrate=N/A speed=17.3x    frame=28071 fps=415 q=-0.0 size=N/A time=00:19:30.79 bitrate=N/A speed=17.3x    frame=28285 fps=415 q=-0.0 size=N/A time=00:19:39.72 bitrate=N/A speed=17.3x    frame=28472 fps=415 q=-0.0 size=N/A time=00:19:47.51 bitrate=N/A speed=17.3x    frame=28676 fps=415 q=-0.0 size=N/A time=00:19:56.02 bitrate=N/A speed=17.3x    frame=28887 fps=415 q=-0.0 size=N/A time=00:20:04.82 bitrate=N/A speed=17.3x    frame=29135 fps=415 q=-0.0 size=N/A time=00:20:15.17 bitrate=N/A speed=17.3x    frame=29352 fps=415 q=-0.0 size=N/A time=00:20:24.22 bitrate=N/A speed=17.3x    frame=29605 fps=416 q=-0.0 size=N/A time=00:20:34.77 bitrate=N/A speed=17.3x    frame=29862 fps=416 q=-0.0 size=N/A time=00:20:45.49 bitrate=N/A speed=17.4x    frame=30027 fps=416 q=-0.0 size=N/A time=00:20:52.37 bitrate=N/A speed=17.3x    frame=30191 fps=415 q=-0.0 size=N/A time=00:20:59.21 bitrate=N/A speed=17.3x    frame=30419 fps=415 q=-0.0 size=N/A time=00:21:08.72 bitrate=N/A speed=17.3x    frame=30600 fps=415 q=-0.0 size=N/A time=00:21:16.27 bitrate=N/A speed=17.3x    frame=30804 fps=415 q=-0.0 size=N/A time=00:21:24.78 bitrate=N/A speed=17.3x    frame=31038 fps=415 q=-0.0 size=N/A time=00:21:34.54 bitrate=N/A speed=17.3x    frame=31221 fps=414 q=-0.0 size=N/A time=00:21:42.17 bitrate=N/A speed=17.3x    frame=31453 fps=415 q=-0.0 size=N/A time=00:21:51.85 bitrate=N/A speed=17.3x    frame=31665 fps=415 q=-0.0 size=N/A time=00:22:00.69 bitrate=N/A speed=17.3x    frame=31883 fps=415 q=-0.0 size=N/A time=00:22:09.78 bitrate=N/A speed=17.3x    frame=32130 fps=415 q=-0.0 size=N/A time=00:22:20.08 bitrate=N/A speed=17.3x    frame=32350 fps=415 q=-0.0 size=N/A time=00:22:29.26 bitrate=N/A speed=17.3x    frame=32537 fps=415 q=-0.0 size=N/A time=00:22:37.06 bitrate=N/A speed=17.3x    frame=32764 fps=415 q=-0.0 size=N/A time=00:22:46.53 bitrate=N/A speed=17.3x    frame=32965 fps=415 q=-0.0 size=N/A time=00:22:54.91 bitrate=N/A speed=17.3x    frame=33189 fps=415 q=-0.0 size=N/A time=00:23:04.25 bitrate=N/A speed=17.3x    frame=33403 fps=415 q=-0.0 size=N/A time=00:23:13.18 bitrate=N/A speed=17.3x    frame=33598 fps=415 q=-0.0 size=N/A time=00:23:21.31 bitrate=N/A speed=17.3x    frame=33817 fps=415 q=-0.0 size=N/A time=00:23:30.45 bitrate=N/A speed=17.3x    frame=34005 fps=415 q=-0.0 size=N/A time=00:23:38.29 bitrate=N/A speed=17.3x    frame=34224 fps=415 q=-0.0 size=N/A time=00:23:47.42 bitrate=N/A speed=17.3x    frame=34417 fps=414 q=-0.0 size=N/A time=00:23:55.47 bitrate=N/A speed=17.3x    [Parsed_psnr_10 @ 0000020ebdf4e4c0] PSNR y:47.602210 u:50.099914 v:50.253295 average:48.303124 min:38.136419 max:inf
[out#0/null @ 0000020ebca90700] video:14858KiB audio:270440KiB subtitle:0KiB other streams:0KiB global headers:0KiB muxing overhead: unknown
frame=34579 fps=414 q=-0.0 Lsize=N/A time=00:24:02.23 bitrate=N/A speed=17.3x    
